<svg width="48" height="48" viewBox="0 0 48 48" fill="none" xmlns="http://www.w3.org/2000/svg">
<path fill-rule="evenodd" clip-rule="evenodd" d="M5.33333 48H42.6667C45.6122 48 48 45.6122 48 42.6667V5.33333C48 2.38781 45.6122 0 42.6667 0H5.33333C2.38781 0 0 2.38781 0 5.33333V42.6667C0 45.6122 2.38781 48 5.33333 48Z" fill="#007EBB"/>
<path fill-rule="evenodd" clip-rule="evenodd" d="M41.3333 41.3333H34.2104V29.2014C34.2104 25.8752 32.9465 24.0164 30.3138 24.0164C27.4497 24.0164 25.9534 25.9507 25.9534 29.2014V41.3333H19.0889V18.2222H25.9534V21.3353C25.9534 21.3353 28.0174 17.5161 32.9217 17.5161C37.8238 17.5161 41.3333 20.5097 41.3333 26.7008V41.3333ZM10.8996 15.196C8.56137 15.196 6.66666 13.2864 6.66666 10.9313C6.66666 8.57624 8.56137 6.66667 10.8996 6.66667C13.2378 6.66667 15.1313 8.57624 15.1313 10.9313C15.1313 13.2864 13.2378 15.196 10.8996 15.196ZM7.35503 41.3333H14.5129V18.2222H7.35503V41.3333Z" fill="white"/>
</svg>
